<?xml version="1.0" standalone="no"?>
<!DOCTYPE svg PUBLIC "-//W3C//DTD SVG 20010904//EN"
 "http://www.w3.org/TR/2001/REC-SVG-20010904/DTD/svg10.dtd">
<svg version="1.0" xmlns="http://www.w3.org/2000/svg"
 width="250.000000pt" height="250.000000pt" viewBox="0 0 250.000000 250.000000"
 preserveAspectRatio="xMidYMid meet">
<metadata>
Created by potrace 1.11, written by Peter Selinger 2001-2013
</metadata>
<g transform="translate(0.000000,250.000000) scale(0.100000,-0.100000)"
fill="#000000" stroke="none">
<path d="M576 2418 c-60 -103 -71 -139 -70 -228 0 -47 6 -115 13 -150 15 -78
59 -174 83 -178 9 -2 31 9 48 25 29 26 31 32 31 93 0 36 -9 106 -20 155 -12
61 -18 120 -15 184 4 144 -22 181 -70 99z"/>
<path d="M1353 2327 c-82 -52 -123 -95 -154 -164 -67 -149 -91 -285 -57 -320
14 -14 24 -15 55 -7 34 8 42 16 70 74 18 36 43 101 55 145 13 45 44 114 71
160 34 57 47 88 45 110 -4 40 -23 41 -85 2z"/>
<path d="M1932 1850 c-51 -12 -188 -99 -248 -159 -43 -43 -54 -60 -54 -86 0
-25 7 -37 28 -51 49 -33 97 -13 242 96 41 31 103 67 138 80 34 12 74 31 87 42
30 23 33 64 7 72 -30 10 -165 14 -200 6z"/>
<path d="M565 1700 c-134 -30 -258 -87 -365 -168 -62 -47 -79 -83 -27 -53 55
30 159 69 237 87 97 23 296 24 395 2 337 -76 599 -323 687 -646 30 -110 30
-315 0 -426 -28 -101 -91 -228 -150 -302 -108 -135 -110 -143 -12 -69 213 162
338 420 338 695 1 226 -64 407 -205 575 -128 153 -331 273 -523 310 -81 16
-294 13 -375 -5z"/>
<path d="M539 1186 c-1 -12 -2 -86 -3 -166 l-1 -145 -145 -2 c-80 -1 -153 -2
-162 -2 -16 -1 -18 -16 -18 -166 l0 -165 163 -2 162 -3 0 -157 c0 -86 3 -160
7 -163 4 -4 72 -8 152 -8 172 -2 156 -19 155 169 0 71 0 137 0 147 1 15 16 17
161 17 l160 0 -2 167 -3 166 -157 0 -158 0 0 26 c-1 14 -2 89 -3 166 l-2 140
-152 1 c-148 0 -153 0 -154 -20z"/>
<path d="M2109 1125 c-2 -2 -26 -6 -54 -9 -47 -5 -100 -19 -172 -46 -29 -10
-42 -29 -49 -68 -1 -7 10 -28 26 -45 26 -29 33 -32 82 -30 29 1 87 9 128 19
41 10 122 19 180 21 137 4 150 7 150 38 0 45 -133 117 -226 121 -34 2 -63 1
-65 -1z"/>
<path d="M1782 506 c-32 -18 -35 -40 -12 -100 16 -43 57 -53 265 -70 33 -3 93
-17 134 -31 109 -37 140 -32 127 18 -8 35 -106 128 -161 153 -86 39 -302 58
-353 30z"/>
</g>
</svg>
